<svg xmlns="http://www.w3.org/2000/svg" aria-hidden="true" style="position:absolute;width:0;height:0;overflow:hidden">
  <defs>
    <symbol id="icon-logo" viewBox="0 0 233 32">
      <path
        d="M19.471 17.348H6.279v12.649h-6.28V0h21.368v5.24H6.278v6.822H19.47v5.286zM32.201 25.66c3.569 0 5.376-2.259 5.376-6.776s-1.807-6.731-5.376-6.731c-3.569 0-5.376 2.214-5.376 6.731s1.807 6.776 5.376 6.776zm0 4.924c-7.183 0-11.43-4.789-11.43-11.701 0-7.048 4.382-11.701 11.43-11.701 6.957 0 11.294 4.608 11.294 11.701 0 7.048-4.382 11.701-11.294 11.701zM59.716 21.956h5.918c-.632 5.15-4.834 8.629-10.21 8.629-6.054 0-10.21-4.021-10.21-11.972s4.156-11.43 10.391-11.43c5.783 0 9.713 3.298 10.074 8.538h-5.918c-.316-2.304-1.988-3.659-4.201-3.659-2.485 0-4.518 1.581-4.518 6.415s2.033 7.183 4.337 7.183 4.111-1.31 4.337-3.704zM87.384 29.997h-5.557V26.88c-1.536 2.53-3.84 3.704-6.912 3.704-4.427 0-7.545-3.298-7.545-8.177V7.77h5.873v13.734c0 2.801 1.265 4.156 3.749 4.156 2.982 0 4.563-2.123 4.563-5.06V7.77h5.828v22.227zM108.978 14.502h-5.647c-.316-2.168-1.491-2.936-4.156-2.936-2.214 0-3.479.542-3.479 1.852s1.22 1.852 3.614 2.53c2.53.723 4.924 1.22 6.641 1.897 2.349.949 3.659 2.485 3.659 5.376 0 4.608-3.388 7.364-9.713 7.364-6.822 0-10.616-3.208-10.707-7.725h6.053c0 2.078 1.762 3.298 4.608 3.298 2.078 0 3.93-.632 3.93-2.304 0-1.581-1.672-2.078-3.569-2.53-3.75-.904-5.828-1.536-7.409-2.53-2.078-1.31-2.801-3.027-2.801-5.015 0-3.75 2.575-6.596 9.352-6.596 6.415 0 9.306 2.53 9.623 7.319zM117.412 29.997h-6.28v-6.099h6.28v6.099zM139.03 17.348h-13.192v12.649h-6.28V0h21.368v5.24h-15.089v6.822h13.192v5.286zM147.494 29.997h-5.873V7.77h5.512v2.665c1.943-2.982 4.201-3.253 6.596-3.253h.768v6.008a9.912 9.912 0 0 0-1.626-.136c-3.614 0-5.376 1.807-5.376 5.376v11.565zM168.495 21.549l.045-2.44c-.587.587-1.626.904-3.795 1.31-3.343.632-4.427 1.581-4.427 3.479 0 1.672.994 2.485 2.846 2.485 3.027 0 5.286-2.214 5.331-4.834zm5.918 8.448h-5.466c-.181-.542-.316-1.31-.361-1.988-1.4 1.536-3.75 2.575-6.731 2.575-5.06 0-7.409-2.485-7.409-6.099 0-6.415 4.292-7.138 10.21-7.951 2.936-.407 3.75-.994 3.75-2.53 0-1.446-1.446-2.304-3.75-2.304-2.665 0-3.75 1.31-4.021 3.298h-5.466c.09-4.608 2.62-7.816 9.758-7.816 7.048 0 9.487 3.162 9.487 8.764v14.05zM208.808 29.997h-5.737V16.534c0-2.665-1.4-4.563-3.479-4.563-2.168 0-3.75 2.033-3.75 4.744v13.282h-5.873V16.625c0-3.569-.949-4.472-3.524-4.472-2.349 0-3.569 1.446-3.569 4.337v13.508h-5.873V7.771h5.512v3.253c1.491-2.936 3.569-3.84 6.506-3.84 3.027 0 4.472.949 6.189 3.524 1.22-2.44 3.208-3.524 6.008-3.524 4.472 0 7.59 3.253 7.59 7.409v15.405zM216.619 16.715h9.08c-.09-3.298-2.259-4.879-4.563-4.879-2.349 0-4.292 1.807-4.518 4.879zm15.134 3.705h-15.315c.181 3.343 2.078 5.512 4.969 5.512 1.897 0 3.569-.949 3.976-2.485h6.054c-1.355 4.563-5.015 7.138-9.758 7.138-7.409 0-11.113-4.066-11.113-12.107 0-6.867 3.93-11.294 10.752-11.294s10.436 4.427 10.436 13.237z"/>
    </symbol>
    <symbol id="icon-camera" viewBox="0 0 32 32">
      <path
        d="M21 17a4.997 4.997 0 0 1-5 5 5.002 5.002 0 0 1-5-5 4.998 4.998 0 0 1 8.536-3.536A4.998 4.998 0 0 1 21 17z"/>
      <path
        d="M4 8a4.003 4.003 0 0 0-4 4v12a4.003 4.003 0 0 0 4 4h24a4.003 4.003 0 0 0 4-4V12a4.003 4.003 0 0 0-4-4h-2.344a4 4 0 0 1-2.828-1.172l-1.656-1.656A4 4 0 0 0 18.344 4h-4.688a4 4 0 0 0-2.828 1.172L9.172 6.828A4 4 0 0 1 6.344 8H4zm1 4a.997.997 0 0 1-1-1 .997.997 0 0 1 1-1 .997.997 0 0 1 1 1 .997.997 0 0 1-1 1zm18 5a6.999 6.999 0 1 1-14 0 7.003 7.003 0 0 1 7-7 7.003 7.003 0 0 1 7 7z"/>
    </symbol>
    <symbol id="icon-tablet-menu" viewBox="0 0 46 32">
      <path
        d="M44 6.743H8.686c-.914 0-1.714-.8-1.714-1.714s.8-1.714 1.714-1.714H44c.914 0 1.714.8 1.714 1.714s-.8 1.714-1.714 1.714zM44 26.171H8.686c-.914 0-1.714-.8-1.714-1.714s.8-1.714 1.714-1.714H44c.914 0 1.714.8 1.714 1.714s-.8 1.714-1.714 1.714zM44 16.457H19.657c-.914 0-1.714-.8-1.714-1.714s.8-1.714 1.714-1.714H44c.914 0 1.714.8 1.714 1.714s-.8 1.714-1.714 1.714z"/>
    </symbol>
    <symbol id="icon-mobile-menu" viewBox="0 0 47 32">
      <path
        d="M45.091 6.836H8.582c-.873 0-1.455-.582-1.455-1.455s.582-1.455 1.455-1.455h36.509c.873 0 1.455.582 1.455 1.455s-.582 1.455-1.455 1.455zM45.091 26.182H8.582c-.873 0-1.455-.582-1.455-1.455s.582-1.455 1.455-1.455h36.509c.873 0 1.455.582 1.455 1.455s-.582 1.455-1.455 1.455zM45.091 16.436H19.636c-.873 0-1.455-.582-1.455-1.455s.582-1.455 1.455-1.455h25.455c.873 0 1.455.582 1.455 1.455s-.582 1.455-1.455 1.455z"/>
    </symbol>
    <symbol id="icon-close" viewBox="0 0 32 32">
      <path
        d="M8 25.5c-.4 0-.8-.1-1.1-.4-.6-.6-.6-1.5 0-2.1l16-16c.6-.6 1.5-.6 2.1 0s.6 1.5 0 2.1l-16 16c-.2.3-.6.4-1 .4z"/>
      <path
        d="M24 25.5c-.4 0-.8-.1-1.1-.4l-16-16c-.6-.6-.6-1.5 0-2.1S8.4 6.4 9 7l16 16c.6.6.6 1.5 0 2.1-.2.3-.6.4-1 .4z"/>
    </symbol>
    <symbol id="icon-hero-arrow" viewBox="0 0 58 32">
      <path fill="#fff" style="fill: var(--color1, #fff)" d="M40 2.144l17.6 13.856-17.6 13.856v-11.456h-40v-4.8h40v-11.456z"/>
    </symbol>
    <symbol id="icon-hero-star" viewBox="0 0 32 32">
      <path
        d="M24.32 29.28c-.16 0-.32 0-.48-.16l-7.84-4-7.68 4c-.48.16-.96.16-1.28-.16s-.48-.8-.48-1.12L8 19.2l-6.24-5.92c-.32-.32-.32-.8-.16-1.28s.48-.8.96-.8l8.64-1.28 3.84-7.84c.48-.8 1.76-.8 2.08 0l3.84 7.84 8.48 1.28c.48 0 .96.32.96.8.16.48 0 .96-.32 1.28L24 19.2l1.44 8.48c0 .48-.16.96-.48 1.12-.16.32-.48.48-.64.48zM16 22.56c.16 0 .32 0 .48.16l6.08 3.2-1.12-6.72c0-.32 0-.8.32-1.12l4.96-4.8-6.88-.96c-.32 0-.8-.32-.96-.64L16 5.44l-3.04 6.08c-.16.32-.48.64-.96.64l-6.72.96 4.96 4.8c.32.32.48.64.32 1.12l-1.12 6.72 6.08-3.2H16z"/>
    </symbol>
    <symbol id="icon-narrow-up-arrow" viewBox="0 0 32 32">
      <path
        d="M8 25.12c-.32 0-.48-.16-.8-.32-.48-.48-.48-1.12 0-1.44l16-16c.48-.48 1.12-.48 1.44 0s.48 1.12 0 1.44l-16 16c-.16.16-.32.32-.64.32z"/>
      <path
        d="M24 19.68c-.64 0-1.12-.48-1.12-1.12v-9.6h-9.6c-.48 0-.96-.32-.96-.96s.48-.96.96-.96H24c.64 0 1.12.48 1.12.96v10.72c0 .48-.48.96-1.12.96z"/>
    </symbol>
    <symbol id="icon-review-star" viewBox="0 0 32 32">
      <path
        d="m16 2.286 4.343 8.914 9.371 1.6-6.857 7.086 1.6 9.829-8.457-4.8-8.457 4.8 1.6-9.829L2.286 12.8l9.371-1.371L16 2.286z"/>
      <path
        d="M24.457 31.543c-.229 0-.686 0-.914-.229L16 26.971l-7.543 4.114c-.686.229-1.371.229-1.829 0-.457-.457-.914-1.143-.686-1.6l1.371-9.143-6.171-6.4c-.457-.457-.686-1.143-.457-1.829s.686-1.143 1.371-1.143l8.686-1.371 3.886-8.229c0-.457.686-.686 1.371-.686.686 0 1.371.457 1.6.914l3.886 8.229 8.686 1.371c.686 0 1.143.457 1.371 1.143s0 1.371-.457 1.829l-6.171 6.4 1.371 9.143c0 .686-.229 1.371-.686 1.6-.457 0-.686.229-1.143.229zM16 23.314c.229 0 .686 0 .914.229l5.486 2.971-1.143-6.4c0-.457 0-1.143.457-1.371l4.571-4.571-6.4-1.143c-.457 0-1.143-.457-1.371-.914L16 6.401l-2.743 5.714c-.229.457-.686.914-1.143.914l-6.171.914 4.571 4.571c.457.457.457.914.457 1.371l-1.143 6.4 5.486-2.971H16z"/>
    </symbol>
  </defs>
</svg>